# xmcd
#
# Track frame offsets:
#	150
#	13105
#	27432
#	37271
#	49592
#	61847
#	74784
#	91386
#	107440
#	119865
#	135587
#
# Disc length: 2042 seconds
#
# Revision: 0
# Processed by: cddbd v1.5.1PL2 Copyright (c) Steve Scherf et al.
# Submitted via: dBpowerAMP V4.0
#
DISCID=a007f80b
DTITLE=Merle Haggard - 11 #1 Hits
DYEAR=1900
DGENRE=Country
TTITLE0=Sing Me Back Home
TTITLE1=Branded Man
TTITLE2=Mamma Tried
TTITLE3=Workin' Man Blues
TTITLE4=Okie From Muskogee
TTITLE5=The Fightin' Side Of Me
TTITLE6=Daddy Frank (The Guitar Man)
TTITLE7=It's Not Love (But It's Not Bad)
TTITLE8=If We Make It Through December
TTITLE9=It's All In The Movies
TTITLE10=I Think I'll Just Stay Here And Drink
EXTD=
EXTT0=
EXTT1=
EXTT2=
EXTT3=
EXTT4=
EXTT5=
EXTT6=
EXTT7=
EXTT8=
EXTT9=
EXTT10=
PLAYORDER=
